<svg width="460" height="474" viewBox="0 0 460 474" fill="none" xmlns="http://www.w3.org/2000/svg">
<g id="lemmling_Blank_sticky_note 1">
<g id="layer1">
<path id="path3162" d="M77.8216 65.3657C121.996 53.8796 192.967 52.0407 192.967 52.0407L395.301 45.1774L404.125 195.204C404.125 195.204 408.202 282.713 432.568 326.431C365.166 345.438 248.261 350.824 248.261 350.824L83.5823 356.411L68.4979 99.7766C68.4979 99.7766 64.3615 79.0472 77.8216 65.3657V65.3657Z" fill="black" fill-opacity="0.39216"/>
<path id="rect2385" d="M71.8308 61.9259C122.174 52.4907 188.946 49.8173 188.946 49.8173L391.337 41.4767L399.371 200.521C399.371 200.521 401.457 262.806 425.588 309.029C367.157 366.238 242.685 366.356 242.685 366.356L77.9666 373.148L64.2205 101.078C64.2205 101.078 63.2428 74.9507 71.8308 61.9259V61.9259Z" fill="url(#paint0_linear)"/>
</g>
<g id="g3154">
<path id="path4171" d="M261.427 51.6663C264.784 65.5157 255.609 79.2046 240.935 82.242C226.259 85.2797 211.642 76.5147 208.285 62.6662C204.928 48.8167 214.103 35.1279 228.777 32.0904C243.453 29.0528 258.07 37.8178 261.427 51.6663Z" fill="#ECCA3E"/>
<path id="path2164" d="M265.69 46.2301C269.041 60.081 259.862 73.7766 245.189 76.8211C230.515 79.8658 215.905 71.1053 212.554 57.2554C209.204 43.4045 218.383 29.7088 233.056 26.6644C247.729 23.6197 262.34 32.3802 265.69 46.2301Z" fill="#D40000"/>
<path id="path2179" d="M267.129 44.6318L241.163 50.0818L237.05 75.024C240.124 75.4122 243.307 75.3398 246.503 74.6692C260.909 71.647 270.008 58.279 267.13 44.6305L267.129 44.6318Z" fill="#EE0000"/>
<path id="path2162" d="M239.876 24.0152C238.07 24.0422 236.241 24.2426 234.411 24.6264C219.771 27.6976 210.59 41.4523 213.914 55.329C216.512 66.1756 225.993 73.8688 236.999 75.2582L241.111 50.3166L267.076 44.8671C267.029 44.645 267.005 44.4234 266.952 44.2012C264.044 32.0598 252.519 23.8263 239.876 24.0161L239.876 24.0152Z" fill="#FF0000"/>
<path id="path2166" d="M229.538 38.1495L227.647 39.6576L224.159 42.4706C222.849 45.666 223.242 49.0117 224.369 52.5481C227.293 61.7228 234.411 66.0648 244.039 64.7204C248.967 64.0323 253.419 62.2498 256.009 58.6348L260.712 52.1692L229.539 38.1487L229.538 38.1495Z" fill="#AA0000"/>
<path id="path2160" d="M266.448 35.1979C269.067 46.0242 261.892 56.7291 250.423 59.1088C238.953 61.4885 227.532 54.6411 224.914 43.8156C222.295 32.9893 229.47 22.2843 240.939 19.9047C252.409 17.5249 263.829 24.3724 266.448 35.1979Z" fill="#D40000"/>
<path id="path2174" d="M267.899 33.7949C270.518 44.6212 263.343 55.3261 251.874 57.7057C240.405 60.0855 228.984 53.238 226.365 42.4126C223.746 31.5863 230.922 20.8813 242.39 18.5017C253.86 16.1219 265.281 22.9694 267.899 33.7949Z" fill="#FF0000"/>
</g>
<path id="TASK - &#62; NEW TASK STATUS -&#62; COMPLETE DATE -&#62; 12/02/2020" d="M103.41 123.36L99.2969 123.422L99.4678 134.829L97.7892 134.854L97.6184 123.447L93.5144 123.508L93.4936 122.12L103.389 121.972L103.41 123.36ZM111.791 131.304L106.431 131.384L105.277 134.742L103.537 134.768L108.231 121.899L109.708 121.877L114.794 134.599L113.063 134.625L111.791 131.304ZM106.92 129.988L111.27 129.923L109.001 123.971L106.92 129.988ZM120.201 128.813C118.748 128.419 117.686 127.925 117.015 127.332C116.349 126.732 116.01 125.987 115.997 125.097C115.982 124.089 116.37 123.251 117.163 122.583C117.962 121.909 119.006 121.562 120.295 121.543C121.173 121.529 121.958 121.688 122.649 122.017C123.345 122.347 123.885 122.807 124.269 123.399C124.659 123.991 124.859 124.642 124.87 125.351L123.174 125.376C123.162 124.603 122.907 124 122.408 123.568C121.909 123.13 121.212 122.918 120.315 122.931C119.483 122.944 118.836 123.138 118.373 123.514C117.915 123.884 117.691 124.394 117.701 125.045C117.709 125.566 117.935 126.005 118.38 126.362C118.831 126.713 119.589 127.029 120.653 127.312C121.724 127.595 122.561 127.914 123.164 128.268C123.773 128.616 124.224 129.029 124.519 129.505C124.819 129.981 124.974 130.544 124.984 131.194C124.999 132.231 124.607 133.069 123.808 133.708C123.009 134.341 121.933 134.668 120.579 134.688C119.701 134.701 118.878 134.547 118.111 134.224C117.344 133.896 116.749 133.442 116.324 132.862C115.905 132.282 115.69 131.621 115.679 130.876L117.375 130.851C117.387 131.624 117.68 132.232 118.255 132.675C118.836 133.112 119.604 133.323 120.559 133.309C121.449 133.295 122.129 133.103 122.598 132.733C123.067 132.363 123.297 131.864 123.288 131.237C123.278 130.61 123.051 130.13 122.607 129.797C122.162 129.458 121.36 129.13 120.201 128.813ZM130.365 128.415L128.825 130.064L128.89 134.388L127.203 134.413L127.011 121.618L128.699 121.593L128.793 127.92L134.384 121.507L136.423 121.477L131.472 127.203L137.01 134.266L134.989 134.297L130.365 128.415ZM146.008 129.359L141.72 129.423L141.7 128.096L145.988 128.032L146.008 129.359ZM157.805 128.241L151.962 126.052L151.937 124.383L159.492 127.592L159.511 128.875L152.056 132.318L152.031 130.631L157.805 128.241ZM180.555 133.614L178.859 133.64L172.27 123.876L172.418 133.736L170.721 133.761L170.53 120.966L172.226 120.941L178.834 130.748L178.685 120.844L180.364 120.819L180.555 133.614ZM190.696 127.547L185.151 127.63L185.219 132.164L191.66 132.068L191.681 133.448L183.552 133.569L183.36 120.774L191.402 120.653L191.422 122.042L185.069 122.137L185.13 126.25L190.675 126.167L190.696 127.547ZM196.48 129.341L196.752 131.025L197.089 129.499L199.487 120.532L200.91 120.511L203.513 129.403L203.888 130.944L204.135 129.218L205.99 120.435L207.686 120.41L204.775 133.251L203.237 133.274L200.461 123.99L200.245 123.017L200.057 123.996L197.464 133.361L195.926 133.384L192.641 120.635L194.328 120.61L196.48 129.341ZM222.541 121.576L218.428 121.637L218.599 133.044L216.92 133.07L216.75 121.663L212.646 121.724L212.625 120.336L222.52 120.187L222.541 121.576ZM230.923 129.52L225.562 129.6L224.408 132.957L222.668 132.983L227.362 120.115L228.839 120.093L233.925 132.815L232.194 132.841L230.923 129.52ZM226.051 128.204L230.401 128.139L228.132 122.187L226.051 128.204ZM239.332 127.029C237.879 126.635 236.817 126.141 236.146 125.547C235.481 124.948 235.141 124.203 235.128 123.312C235.113 122.305 235.502 121.467 236.294 120.799C237.093 120.124 238.137 119.778 239.426 119.758C240.305 119.745 241.089 119.903 241.78 120.233C242.476 120.562 243.016 121.023 243.4 121.615C243.79 122.207 243.99 122.857 244.001 123.566L242.305 123.592C242.293 122.818 242.038 122.216 241.539 121.784C241.041 121.346 240.343 121.133 239.447 121.147C238.615 121.159 237.967 121.354 237.504 121.73C237.046 122.1 236.823 122.61 236.832 123.26C236.84 123.782 237.067 124.221 237.511 124.578C237.962 124.928 238.72 125.245 239.785 125.528C240.855 125.811 241.692 126.129 242.295 126.484C242.904 126.832 243.356 127.244 243.65 127.72C243.95 128.196 244.105 128.76 244.115 129.41C244.13 130.447 243.738 131.285 242.939 131.924C242.14 132.557 241.064 132.884 239.711 132.904C238.832 132.917 238.009 132.762 237.242 132.44C236.476 132.112 235.88 131.658 235.455 131.078C235.036 130.498 234.821 129.836 234.81 129.092L236.506 129.067C236.518 129.84 236.811 130.448 237.386 130.891C237.967 131.327 238.735 131.539 239.69 131.524C240.58 131.511 241.26 131.319 241.729 130.949C242.198 130.578 242.428 130.08 242.419 129.453C242.41 128.826 242.183 128.346 241.738 128.013C241.294 127.674 240.492 127.346 239.332 127.029ZM249.497 126.631L247.957 128.28L248.021 132.604L246.334 132.629L246.142 119.834L247.83 119.808L247.925 126.136L253.516 119.723L255.554 119.693L250.604 125.419L256.142 132.482L254.12 132.512L249.497 126.631ZM99.0534 171.135C97.6001 170.741 96.5379 170.247 95.8668 169.653C95.2015 169.054 94.8622 168.309 94.8488 167.418C94.8338 166.41 95.2226 165.572 96.0154 164.904C96.814 164.23 97.8578 163.883 99.1467 163.864C100.025 163.851 100.81 164.009 101.501 164.339C102.197 164.668 102.737 165.129 103.121 165.721C103.511 166.313 103.711 166.963 103.722 167.672L102.026 167.697C102.014 166.924 101.759 166.321 101.26 165.889C100.761 165.451 100.064 165.239 99.1675 165.253C98.3355 165.265 97.688 165.459 97.2248 165.835C96.7674 166.206 96.5436 166.716 96.5533 167.366C96.5611 167.888 96.7875 168.327 97.2323 168.683C97.6829 169.034 98.4407 169.351 99.5056 169.634C100.576 169.917 101.413 170.235 102.016 170.589C102.625 170.938 103.077 171.35 103.371 171.826C103.671 172.302 103.826 172.865 103.836 173.516C103.851 174.553 103.459 175.391 102.66 176.03C101.861 176.663 100.785 176.989 99.4315 177.01C98.5527 177.023 97.73 176.868 96.9633 176.546C96.1966 176.217 95.6009 175.763 95.1761 175.184C94.7572 174.604 94.5422 173.942 94.5311 173.198L96.2272 173.173C96.2388 173.946 96.5321 174.554 97.1071 174.996C97.6879 175.433 98.4558 175.644 99.4108 175.63C100.301 175.617 100.981 175.425 101.45 175.054C101.919 174.684 102.149 174.186 102.14 173.559C102.13 172.932 101.904 172.452 101.459 172.118C101.014 171.779 100.213 171.452 99.0534 171.135ZM114.725 165.195L110.612 165.257L110.783 176.664L109.105 176.689L108.934 165.282L104.83 165.344L104.809 163.955L114.704 163.807L114.725 165.195ZM123.107 173.139L117.746 173.219L116.592 176.577L114.852 176.603L119.546 163.734L121.023 163.712L126.109 176.434L124.378 176.46L123.107 173.139ZM118.235 171.823L122.585 171.758L120.316 165.806L118.235 171.823ZM135.359 164.886L131.247 164.948L131.417 176.355L129.739 176.38L129.568 164.973L125.464 165.035L125.443 163.646L135.339 163.498L135.359 164.886ZM146.245 163.334L146.375 172.035C146.387 173.242 146.021 174.235 145.277 175.013C144.538 175.792 143.525 176.238 142.238 176.351L141.79 176.375C140.39 176.396 139.268 176.035 138.425 175.292C137.582 174.548 137.144 173.515 137.113 172.191L136.982 163.473L138.652 163.448L138.782 172.113C138.795 173.039 139.061 173.756 139.578 174.264C140.096 174.766 140.826 175.01 141.769 174.996C142.724 174.981 143.45 174.716 143.946 174.198C144.448 173.681 144.692 172.959 144.678 172.034L144.549 163.36L146.245 163.334ZM152.784 170.33C151.33 169.936 150.268 169.442 149.597 168.848C148.932 168.249 148.592 167.504 148.579 166.613C148.564 165.606 148.953 164.768 149.746 164.1C150.544 163.425 151.588 163.079 152.877 163.059C153.756 163.046 154.54 163.204 155.231 163.534C155.927 163.863 156.468 164.324 156.852 164.916C157.241 165.508 157.441 166.158 157.452 166.867L155.756 166.893C155.744 166.119 155.489 165.517 154.991 165.085C154.492 164.647 153.794 164.434 152.898 164.448C152.066 164.46 151.418 164.655 150.955 165.031C150.498 165.401 150.274 165.911 150.284 166.561C150.291 167.083 150.518 167.522 150.963 167.879C151.413 168.229 152.171 168.546 153.236 168.829C154.307 169.112 155.144 169.43 155.747 169.785C156.355 170.133 156.807 170.545 157.101 171.021C157.401 171.497 157.556 172.061 157.566 172.711C157.582 173.748 157.19 174.586 156.391 175.225C155.591 175.858 154.515 176.185 153.162 176.205C152.283 176.218 151.46 176.063 150.694 175.741C149.927 175.413 149.331 174.959 148.906 174.379C148.488 173.799 148.273 173.137 148.261 172.393L149.957 172.368C149.969 173.141 150.262 173.749 150.837 174.192C151.418 174.628 152.186 174.84 153.141 174.825C154.032 174.812 154.711 174.62 155.181 174.25C155.65 173.879 155.88 173.381 155.87 172.754C155.861 172.127 155.634 171.647 155.189 171.314C154.745 170.975 153.943 170.647 152.784 170.33ZM167.307 171.044L163.018 171.109L162.998 169.782L167.287 169.717L167.307 171.044ZM174.64 169.994L168.797 167.805L168.772 166.135L176.326 169.345L176.346 170.628L168.89 174.071L168.865 172.383L174.64 169.994ZM192.443 171.38C192.305 172.736 191.819 173.789 190.987 174.54C190.16 175.285 189.049 175.667 187.655 175.688C186.143 175.711 184.923 175.187 183.992 174.117C183.068 173.047 182.592 171.604 182.565 169.787L182.547 168.557C182.529 167.368 182.724 166.319 183.132 165.41C183.547 164.502 184.14 163.801 184.912 163.309C185.684 162.811 186.582 162.555 187.607 162.539C188.967 162.519 190.062 162.883 190.894 163.633C191.725 164.376 192.218 165.418 192.373 166.757L190.677 166.783C190.515 165.766 190.185 165.032 189.686 164.582C189.193 164.133 188.507 163.915 187.628 163.928C186.55 163.944 185.71 164.355 185.106 165.161C184.509 165.967 184.221 167.105 184.243 168.576L184.262 169.815C184.283 171.203 184.589 172.303 185.182 173.115C185.774 173.926 186.591 174.324 187.634 174.309C188.572 174.295 189.286 174.073 189.778 173.644C190.275 173.208 190.598 172.462 190.746 171.405L192.443 171.38ZM204.568 169.273C204.586 170.527 204.392 171.626 203.984 172.569C203.576 173.507 202.989 174.228 202.223 174.732C201.457 175.236 200.559 175.495 199.528 175.511C198.52 175.526 197.623 175.293 196.836 174.812C196.05 174.326 195.433 173.629 194.985 172.722C194.544 171.808 194.308 170.748 194.279 169.542L194.265 168.619C194.246 167.389 194.444 166.299 194.857 165.349C195.271 164.399 195.864 163.67 196.635 163.16C197.413 162.644 198.305 162.379 199.313 162.364C200.338 162.348 201.244 162.584 202.031 163.07C202.824 163.551 203.438 164.259 203.874 165.196C204.31 166.127 204.537 167.217 204.556 168.465L204.568 169.273ZM202.877 168.472C202.854 166.955 202.532 165.797 201.911 164.997C201.289 164.192 200.43 163.797 199.335 163.814C198.269 163.83 197.434 164.25 196.831 165.073C196.234 165.891 195.937 167.02 195.941 168.462L195.955 169.402C195.977 170.873 196.302 172.025 196.93 172.86C197.564 173.688 198.422 174.094 199.506 174.078C200.596 174.062 201.434 173.654 202.019 172.854C202.605 172.048 202.896 170.904 202.891 169.421L202.877 168.472ZM209.176 162.392L213.516 172.77L217.542 162.267L219.731 162.234L219.922 175.029L218.235 175.055L218.16 170.072L218.238 164.691L214.192 175.115L212.9 175.134L208.554 164.862L208.801 170.212L208.876 175.195L207.188 175.22L206.997 162.425L209.176 162.392ZM224.514 169.95L224.589 174.959L222.901 174.985L222.71 162.189L227.429 162.119C228.829 162.098 229.93 162.439 230.732 163.141C231.539 163.844 231.952 164.785 231.969 165.962C231.988 167.204 231.613 168.168 230.844 168.853C230.08 169.533 228.975 169.883 227.528 169.905L224.514 169.95ZM224.493 168.57L227.525 168.525C228.427 168.512 229.115 168.29 229.589 167.861C230.063 167.426 230.294 166.808 230.282 166.005C230.271 165.243 230.022 164.638 229.534 164.188C229.047 163.738 228.384 163.511 227.546 163.506L224.418 163.552L224.493 168.57ZM235.931 173.409L241.995 173.319L242.015 174.698L234.256 174.815L234.064 162.019L235.76 161.994L235.931 173.409ZM251.084 168.647L245.539 168.73L245.607 173.265L252.048 173.168L252.069 174.548L243.94 174.67L243.748 161.874L251.789 161.754L251.81 163.142L245.456 163.237L245.518 167.35L251.063 167.267L251.084 168.647ZM263.015 162.974L258.902 163.036L259.073 174.443L257.395 174.468L257.224 163.061L253.12 163.123L253.099 161.734L262.994 161.586L263.015 162.974ZM272.228 168.33L266.683 168.413L266.751 172.948L273.192 172.851L273.213 174.231L265.084 174.353L264.892 161.557L272.934 161.437L272.954 162.826L266.601 162.921L266.662 167.034L272.207 166.95L272.228 168.33ZM95.9977 218.89L95.8061 206.095L99.418 206.041C100.531 206.024 101.519 206.255 102.382 206.735C103.245 207.214 103.914 207.904 104.391 208.805C104.873 209.706 105.126 210.746 105.149 211.923L105.162 212.74C105.18 213.947 104.961 215.008 104.506 215.923C104.057 216.838 103.402 217.546 102.542 218.045C101.689 218.544 100.687 218.808 99.5393 218.837L95.9977 218.89ZM97.5142 207.458L97.6644 217.485L99.4396 217.458C100.74 217.439 101.745 217.02 102.453 216.2C103.168 215.381 103.514 214.224 103.491 212.73L103.48 211.983C103.458 210.53 103.099 209.408 102.401 208.615C101.71 207.817 100.737 207.421 99.4827 207.428L97.5142 207.458ZM114.631 215.271L109.27 215.351L108.116 218.709L106.376 218.735L111.071 205.866L112.547 205.844L117.634 218.566L115.903 218.592L114.631 215.271ZM109.759 213.955L114.109 213.89L111.84 207.938L109.759 213.955ZM126.884 207.018L122.771 207.08L122.942 218.487L121.263 218.512L121.093 207.105L116.989 207.166L116.968 205.778L126.863 205.629L126.884 207.018ZM136.097 212.374L130.552 212.457L130.62 216.991L137.061 216.895L137.082 218.275L128.953 218.396L128.761 205.601L136.802 205.481L136.823 206.869L130.469 206.964L130.531 211.077L136.076 210.994L136.097 212.374ZM146.704 213.358L142.415 213.422L142.395 212.095L146.684 212.031L146.704 213.358ZM154.037 212.307L148.194 210.118L148.169 208.448L155.723 211.658L155.742 212.941L148.287 216.384L148.262 214.697L154.037 212.307ZM167.41 217.821L165.775 217.845L165.613 207.009L162.353 208.262L162.331 206.786L166.962 204.967L167.217 204.964L167.41 217.821ZM180.557 217.624L172.173 217.749L172.155 216.58L176.511 211.593C177.156 210.839 177.598 210.229 177.837 209.762C178.082 209.29 178.201 208.804 178.193 208.306C178.183 207.638 177.973 207.094 177.562 206.672C177.152 206.25 176.609 206.045 175.936 206.055C175.127 206.067 174.501 206.308 174.057 206.777C173.618 207.241 173.405 207.883 173.417 208.703L171.792 208.727C171.774 207.55 172.138 206.592 172.882 205.854C173.633 205.117 174.644 204.738 175.916 204.719C177.105 204.701 178.05 205.001 178.751 205.617C179.451 206.228 179.809 207.052 179.825 208.089C179.844 209.348 179.064 210.86 177.484 212.624L174.113 216.393L180.537 216.297L180.557 217.624ZM182.788 218.689L181.39 218.71L186.525 204.736L187.914 204.715L182.788 218.689ZM197.638 211.909C197.667 213.813 197.363 215.233 196.726 216.168C196.09 217.104 195.08 217.582 193.697 217.603C192.332 217.623 191.315 217.187 190.645 216.295C189.975 215.396 189.615 214.048 189.565 212.25L189.533 210.079C189.504 208.199 189.809 206.796 190.445 205.873C191.082 204.949 192.094 204.477 193.483 204.456C194.86 204.435 195.88 204.862 196.543 205.737C197.207 206.606 197.561 207.961 197.606 209.8L197.638 211.909ZM195.979 209.71C195.958 208.333 195.75 207.334 195.354 206.713C194.958 206.086 194.341 205.779 193.503 205.792C192.671 205.804 192.069 206.127 191.698 206.759C191.326 207.392 191.145 208.359 191.152 209.659L191.191 212.261C191.212 213.643 191.427 214.663 191.835 215.319C192.249 215.969 192.863 216.288 193.678 216.276C194.48 216.264 195.07 215.944 195.448 215.317C195.831 214.69 196.021 213.709 196.019 212.373L195.979 209.71ZM208.186 217.21L199.803 217.335L199.785 216.167L204.14 211.179C204.786 210.425 205.228 209.815 205.467 209.348C205.712 208.876 205.83 208.391 205.823 207.893C205.813 207.225 205.603 206.68 205.192 206.258C204.781 205.837 204.239 205.631 203.565 205.641C202.757 205.653 202.13 205.894 201.686 206.364C201.248 206.827 201.035 207.469 201.047 208.289L199.421 208.314C199.404 207.136 199.767 206.178 200.512 205.441C201.263 204.703 202.274 204.324 203.545 204.305C204.735 204.287 205.68 204.587 206.38 205.203C207.081 205.814 207.439 206.638 207.455 207.675C207.473 208.934 206.693 210.446 205.114 212.21L201.742 215.979L208.166 215.883L208.186 217.21ZM210.417 218.275L209.02 218.296L214.155 204.322L215.544 204.301L210.417 218.275ZM225.71 216.947L217.326 217.073L217.308 215.904L221.664 210.916C222.309 210.163 222.751 209.552 222.99 209.086C223.235 208.613 223.354 208.128 223.346 207.63C223.336 206.962 223.126 206.417 222.715 205.996C222.305 205.574 221.762 205.368 221.089 205.379C220.28 205.391 219.654 205.631 219.21 206.101C218.771 206.565 218.558 207.207 218.57 208.027L216.945 208.051C216.927 206.874 217.291 205.916 218.036 205.178C218.786 204.44 219.797 204.062 221.069 204.043C222.258 204.025 223.203 204.324 223.904 204.941C224.604 205.551 224.962 206.375 224.978 207.412C224.997 208.672 224.217 210.184 222.637 211.948L219.266 215.717L225.69 215.62L225.71 216.947ZM235.374 211.344C235.403 213.248 235.099 214.668 234.462 215.603C233.826 216.539 232.816 217.017 231.433 217.037C230.068 217.058 229.051 216.622 228.381 215.729C227.711 214.831 227.351 213.483 227.301 211.685L227.269 209.514C227.24 207.633 227.545 206.231 228.181 205.307C228.818 204.384 229.83 203.911 231.219 203.891C232.596 203.87 233.616 204.297 234.279 205.172C234.943 206.041 235.297 207.395 235.342 209.235L235.374 211.344ZM233.715 209.145C233.694 207.768 233.486 206.769 233.09 206.148C232.694 205.521 232.077 205.214 231.239 205.226C230.407 205.239 229.805 205.561 229.434 206.194C229.062 206.827 228.881 207.793 228.888 209.094L228.927 211.695C228.948 213.078 229.163 214.097 229.571 214.754C229.985 215.404 230.599 215.723 231.414 215.71C232.216 215.698 232.806 215.379 233.184 214.752C233.567 214.125 233.757 213.144 233.755 211.808L233.715 209.145ZM245.922 216.645L237.539 216.77L237.521 215.601L241.876 210.614C242.522 209.86 242.964 209.25 243.203 208.783C243.448 208.311 243.566 207.825 243.559 207.327C243.549 206.659 243.339 206.115 242.928 205.693C242.517 205.271 241.975 205.066 241.301 205.076C240.493 205.088 239.866 205.329 239.422 205.798C238.984 206.262 238.771 206.904 238.783 207.724L237.157 207.748C237.14 206.571 237.503 205.613 238.248 204.875C238.999 204.137 240.01 203.759 241.281 203.74C242.471 203.722 243.416 204.022 244.116 204.638C244.817 205.249 245.175 206.073 245.191 207.11C245.209 208.369 244.429 209.881 242.85 211.645L239.478 215.414L245.902 215.318L245.922 216.645ZM255.587 211.041C255.615 212.945 255.311 214.365 254.675 215.3C254.038 216.236 253.029 216.714 251.646 216.735C250.281 216.755 249.264 216.319 248.594 215.427C247.924 214.528 247.564 213.18 247.514 211.382L247.481 209.211C247.453 207.331 247.757 205.928 248.394 205.005C249.03 204.081 250.043 203.609 251.432 203.588C252.808 203.567 253.829 203.994 254.492 204.869C255.156 205.738 255.51 207.093 255.555 208.932L255.587 211.041ZM253.927 208.842C253.907 207.465 253.699 206.466 253.302 205.845C252.906 205.218 252.289 204.911 251.452 204.924C250.62 204.936 250.018 205.259 249.646 205.891C249.275 206.524 249.093 207.491 249.101 208.791L249.14 211.393C249.161 212.775 249.375 213.795 249.783 214.451C250.198 215.101 250.812 215.42 251.626 215.408C252.429 215.396 253.019 215.076 253.396 214.449C253.779 213.823 253.97 212.841 253.967 211.505L253.927 208.842Z" fill="black"/>
</g>
<defs>
<linearGradient id="paint0_linear" x1="91.2833" y1="66.2804" x2="100.318" y2="94.2294" gradientUnits="userSpaceOnUse">
<stop stop-color="#DFDF20"/>
<stop offset="0.78125" stop-color="#DBDB3F"/>
</linearGradient>
</defs>
</svg>
