<svg width="898" height="468" viewBox="0 0 898 468" fill="none" xmlns="http://www.w3.org/2000/svg">
<g id="undraw_welcome_cats 1" clip-path="url(#clip0)" filter="url(#filter0_d)">
<path id="Vector" d="M448.538 410.603C694.049 410.603 893.076 405.036 893.076 398.169C893.076 391.301 694.049 385.734 448.538 385.734C203.026 385.734 4 391.301 4 398.169C4 405.036 203.026 410.603 448.538 410.603Z" fill="#E6E6E6"/>
<path id="Vector_2" d="M685.445 263.431C684.884 263.439 684.322 263.447 683.753 263.447C683.184 263.447 682.623 263.439 682.062 263.431C652.304 262.755 630.736 244.162 636.226 224.654L649.613 177.066L652.996 165.024L712.973 166.047L716.617 177.827L730.965 224.193C737.04 243.808 715.472 262.755 685.445 263.431Z" fill="#3F3D56"/>
<path id="Vector_3" opacity="0.2" d="M716.617 177.827C706.391 183.672 694.79 186.684 683.012 186.55C671.233 186.416 659.704 183.142 649.613 177.066L652.996 165.024L712.973 166.047L716.617 177.827Z" fill="black"/>
<path id="Tail2" d="M718.925 213.9C721.344 205.502 729.291 193.387 751.581 178.78C790.454 153.302 767.264 134.198 766.26 133.398C764.152 131.719 764.463 129.834 766.983 129.189C768.448 128.917 769.957 128.939 771.412 129.254C772.866 129.57 774.231 130.171 775.416 131.018C776.674 131.988 805.712 155.095 761.847 183.841C722.37 209.715 730.764 226.605 730.86 226.767C731.918 228.574 730.222 230.019 727.068 230C723.914 229.98 720.497 228.502 719.436 226.697C719.213 226.315 716.673 221.718 718.925 213.9Z" fill="#3F3D56"/>
<path id="Vector_4" d="M656.072 270.367C655.163 270.367 654.263 270.188 653.424 269.84C652.584 269.492 651.821 268.983 651.179 268.34C650.536 267.698 650.026 266.935 649.679 266.095C649.331 265.255 649.152 264.355 649.152 263.447V233.459C649.152 231.623 649.881 229.863 651.179 228.565C652.477 227.267 654.237 226.538 656.072 226.538C657.908 226.538 659.668 227.267 660.966 228.565C662.263 229.863 662.992 231.623 662.992 233.459V263.447C662.992 264.355 662.813 265.255 662.466 266.095C662.118 266.935 661.608 267.698 660.966 268.34C660.323 268.983 659.56 269.492 658.72 269.84C657.881 270.188 656.981 270.367 656.072 270.367Z" fill="#3F3D56"/>
<path id="Vector_5" d="M662.14 199.174C661.76 200 661.221 200.742 660.554 201.36C659.887 201.977 659.105 202.457 658.253 202.772C657.401 203.087 656.495 203.232 655.586 203.197C654.678 203.162 653.786 202.948 652.96 202.568L625.717 190.034C624.052 189.266 622.76 187.868 622.125 186.147C621.489 184.426 621.563 182.524 622.33 180.858C623.096 179.192 624.493 177.898 626.213 177.261C627.933 176.624 629.835 176.696 631.502 177.46L658.745 189.995C659.571 190.374 660.314 190.913 660.931 191.58C661.549 192.247 662.029 193.029 662.344 193.881C662.659 194.734 662.803 195.64 662.768 196.548C662.733 197.456 662.52 198.348 662.14 199.174Z" fill="#3F3D56"/>
<path id="Vector_6" d="M705.367 199.174C705.747 200 706.286 200.742 706.953 201.36C707.619 201.977 708.401 202.457 709.254 202.772C710.106 203.087 711.012 203.232 711.92 203.197C712.828 203.162 713.721 202.948 714.546 202.568L741.789 190.034C743.457 189.267 744.751 187.869 745.388 186.147C746.024 184.426 745.951 182.522 745.184 180.855C744.417 179.187 743.019 177.893 741.297 177.256C739.576 176.62 737.672 176.693 736.004 177.46L708.761 189.995C707.936 190.374 707.193 190.913 706.576 191.58C705.958 192.247 705.478 193.029 705.163 193.881C704.848 194.734 704.704 195.64 704.739 196.548C704.774 197.456 704.987 198.348 705.367 199.174Z" fill="#3F3D56"/>
<path id="Vector_7" d="M711.435 270.367C712.343 270.367 713.243 270.188 714.083 269.84C714.923 269.492 715.685 268.983 716.328 268.34C716.971 267.698 717.48 266.935 717.828 266.095C718.176 265.255 718.355 264.355 718.355 263.447V233.459C718.355 231.623 717.626 229.863 716.328 228.565C715.03 227.267 713.27 226.538 711.435 226.538C709.599 226.538 707.839 227.267 706.541 228.565C705.243 229.863 704.514 231.623 704.514 233.459V263.447C704.514 264.355 704.693 265.255 705.041 266.095C705.389 266.935 705.899 267.698 706.541 268.34C707.184 268.983 707.947 269.492 708.786 269.84C709.626 270.188 710.526 270.367 711.435 270.367Z" fill="#3F3D56"/>
<path id="head2" d="M740.356 76.2247C740.954 75.4715 741.385 74.6 741.622 73.6677C741.859 72.7355 741.895 71.7637 741.729 70.8163L737.963 48.6593L734.196 26.5023C733.993 25.306 733.478 24.1842 732.704 23.2499C731.93 22.3155 730.923 21.6014 729.785 21.1794C728.648 20.7573 727.419 20.6422 726.222 20.8456C725.026 21.0489 723.904 21.5636 722.97 22.3379L705.665 36.6782L695.239 45.3177C688.286 44.0813 681.179 43.9741 674.192 45.0003L664.149 36.6782L646.843 22.3379C645.909 21.5636 644.787 21.0489 643.591 20.8456C642.395 20.6422 641.166 20.7574 640.028 21.1794C638.891 21.6014 637.884 22.3155 637.11 23.2499C636.335 24.1843 635.821 25.306 635.617 26.5023L631.851 48.6593L628.085 70.8163C627.883 71.9808 627.987 73.1776 628.386 74.29C621.931 84.1851 618.246 95.629 617.713 107.431C617.18 119.233 619.819 130.963 625.356 141.399C630.893 151.836 639.125 160.598 649.196 166.775C659.267 172.952 670.809 176.317 682.621 176.521C694.434 176.725 706.085 173.76 716.363 167.935C726.642 162.11 735.171 153.638 741.065 143.399C746.959 133.16 750.002 121.528 749.877 109.715C749.752 97.9012 746.465 86.3369 740.356 76.2247Z" fill="#3F3D56"/>
<path id="Vector_8" d="M645.109 31.4176C644.699 31.4181 644.292 31.492 643.907 31.6357C643.342 31.8415 642.842 32.194 642.458 32.6572C642.074 33.1203 641.82 33.6774 641.723 34.271L637.156 61.1406C637.055 61.7329 637.112 62.3412 637.321 62.9045C637.53 63.4678 637.884 63.9661 638.346 64.3495C638.809 64.7328 639.364 64.9876 639.957 65.0882C640.549 65.1889 641.157 65.1319 641.72 64.9229L667.274 55.4435C667.837 55.2345 668.335 54.881 668.718 54.4185C669.102 53.956 669.357 53.4007 669.457 52.8085C669.558 52.2163 669.501 51.608 669.292 51.0448C669.083 50.4816 668.73 49.9833 668.267 49.5999L668.267 49.5992L647.281 32.2094C646.672 31.6993 645.904 31.419 645.109 31.4176Z" fill="#E6E6E6"/>
<path id="Vector_9" d="M724.704 31.4176C723.91 31.419 723.141 31.6993 722.532 32.2094L701.546 49.5999C701.084 49.9833 700.73 50.4816 700.522 51.0448C700.313 51.608 700.256 52.2163 700.356 52.8085C700.457 53.4007 700.712 53.956 701.095 54.4185C701.478 54.881 701.977 55.2345 702.54 55.4435L728.093 64.9229C728.656 65.1319 729.265 65.1889 729.857 65.0882C730.449 64.9876 731.005 64.7328 731.467 64.3495C731.93 63.9661 732.284 63.4678 732.493 62.9045C732.701 62.3412 732.759 61.7329 732.658 61.1406L728.091 34.271C727.993 33.6774 727.74 33.1203 727.356 32.6572C726.972 32.194 726.471 31.8415 725.906 31.6357C725.522 31.492 725.115 31.4181 724.704 31.4176Z" fill="#E6E6E6"/>
<path id="Vector_10" d="M683.753 128.885C688.849 128.885 692.981 124.754 692.981 119.658C692.981 114.562 688.849 110.431 683.753 110.431C678.657 110.431 674.526 114.562 674.526 119.658C674.526 124.754 678.657 128.885 683.753 128.885Z" fill="#E6E6E6"/>
<path id="Vector_11" d="M683.753 117.351C687.151 117.351 689.905 116.318 689.905 115.044C689.905 113.77 687.151 112.737 683.753 112.737C680.356 112.737 677.602 113.77 677.602 115.044C677.602 116.318 680.356 117.351 683.753 117.351Z" fill="#3F3D56"/>
<path id="Vector_12" d="M679.14 125.04H687.598V135.421C687.598 135.976 687.489 136.526 687.276 137.039C687.064 137.552 686.752 138.018 686.359 138.411C685.967 138.804 685.5 139.115 684.987 139.328C684.474 139.54 683.924 139.65 683.369 139.65C682.247 139.65 681.172 139.204 680.378 138.411C679.585 137.618 679.14 136.542 679.14 135.421V125.04H679.14Z" fill="#FF6584"/>
<path id="Vector_13" d="M684.267 20.3795C683.823 21.2993 683.393 22.229 682.988 23.1777C678.216 34.3069 676.606 46.5368 678.337 58.5215C679.203 57.2655 680.112 55.9568 681.038 54.6338C679.056 43.1314 680.17 31.3089 684.267 20.3795Z" fill="#3F3D56"/>
<path id="Vector_14" d="M691.187 28.8377C690.744 29.7575 690.313 30.6872 689.908 31.6359C685.136 42.7651 683.527 54.995 685.257 66.9798C686.123 65.7237 687.033 64.4151 687.958 63.092C685.976 51.5897 687.091 39.7671 691.187 28.8377Z" fill="#3F3D56"/>
<path id="Vector_15" d="M712.523 194.889L711.548 182.491L710.573 170.093C710.521 169.423 710.293 168.779 709.912 168.226C709.532 167.673 709.013 167.229 708.407 166.94C707.801 166.651 707.129 166.526 706.46 166.579C705.79 166.632 705.147 166.86 704.593 167.24L694.344 174.283L686.859 179.426C686.381 178.866 685.787 178.417 685.118 178.108C684.449 177.8 683.721 177.64 682.984 177.64C682.248 177.64 681.52 177.8 680.851 178.108C680.182 178.417 679.588 178.866 679.11 179.426L671.625 174.283L661.376 167.24C660.822 166.859 660.179 166.632 659.509 166.579C658.84 166.526 658.168 166.651 657.562 166.94C656.956 167.229 656.437 167.673 656.057 168.226C655.676 168.779 655.448 169.423 655.396 170.093L654.421 182.491L653.446 194.889C653.393 195.558 653.518 196.23 653.807 196.836C654.096 197.442 654.54 197.961 655.093 198.341C655.646 198.722 656.29 198.949 656.96 199.002C657.629 199.055 658.301 198.93 658.907 198.641L670.131 193.286L679.354 188.887C679.828 189.367 680.393 189.749 681.017 190.01C681.64 190.27 682.309 190.405 682.984 190.405C683.66 190.405 684.329 190.27 684.952 190.01C685.575 189.749 686.141 189.367 686.615 188.887L695.838 193.286L707.062 198.641C707.668 198.93 708.34 199.055 709.009 199.002C709.679 198.949 710.322 198.722 710.876 198.341C711.429 197.961 711.873 197.442 712.162 196.836C712.451 196.23 712.576 195.558 712.523 194.889Z" fill="#6372FF"/>
<path id="Vector_16" d="M671.451 111.968C672.725 111.968 673.757 110.936 673.757 109.662C673.757 108.388 672.725 107.355 671.451 107.355C670.177 107.355 669.144 108.388 669.144 109.662C669.144 110.936 670.177 111.968 671.451 111.968Z" fill="#E6E6E6"/>
<path id="Vector_17" d="M696.056 111.968C697.33 111.968 698.363 110.936 698.363 109.662C698.363 108.388 697.33 107.355 696.056 107.355C694.782 107.355 693.749 108.388 693.749 109.662C693.749 110.936 694.782 111.968 696.056 111.968Z" fill="#E6E6E6"/>
<path id="Vector_18" d="M237.425 243.052C237.987 243.059 238.548 243.067 239.117 243.067C239.686 243.067 240.247 243.059 240.809 243.052C270.566 242.375 292.134 223.782 286.644 204.275L273.257 156.686L269.874 144.645L209.898 145.667L206.253 157.447L191.905 203.814C185.831 223.429 207.399 242.375 237.425 243.052Z" fill="#3F3D56"/>
<path id="Vector_19" opacity="0.2" d="M206.253 157.447C216.479 163.293 228.08 166.304 239.859 166.17C251.637 166.037 263.166 162.763 273.257 156.686L269.874 144.645L209.898 145.667L206.253 157.447Z" fill="black"/>
<path id="Tail1" d="M201.5 200.214C195.026 192.595 181.37 183.649 152.599 178.688C102.422 170.032 115.479 139.548 116.058 138.256C117.273 135.545 116.044 133.728 113.286 134.215C111.734 134.602 110.283 135.318 109.03 136.312C107.777 137.307 106.751 138.557 106.021 139.981C105.279 141.566 88.5289 178.891 145.148 188.654C196.105 197.444 196.287 218.844 196.273 219.056C196.138 221.419 198.491 222.143 201.536 220.677C204.58 219.211 207.161 216.108 207.301 213.746C207.329 213.247 207.527 207.305 201.5 200.214Z" fill="#3F3D56"/>
<path id="Vector_20" d="M266.798 249.987C267.707 249.987 268.607 249.808 269.447 249.461C270.286 249.113 271.049 248.603 271.692 247.961C272.334 247.318 272.844 246.555 273.192 245.715C273.54 244.876 273.719 243.976 273.719 243.067V213.079C273.716 211.245 272.986 209.487 271.689 208.191C270.391 206.895 268.632 206.167 266.798 206.167C264.964 206.167 263.205 206.895 261.908 208.191C260.61 209.487 259.88 211.245 259.878 213.079V243.067C259.878 243.976 260.057 244.876 260.405 245.715C260.752 246.555 261.262 247.318 261.905 247.961C262.547 248.603 263.31 249.113 264.15 249.461C264.99 249.808 265.89 249.987 266.798 249.987Z" fill="#3F3D56"/>
<path id="Vector_21" d="M260.731 178.794C261.11 179.62 261.649 180.363 262.316 180.98C262.983 181.598 263.765 182.078 264.617 182.393C265.47 182.708 266.376 182.852 267.284 182.817C268.192 182.782 269.084 182.569 269.91 182.189L297.153 169.655C297.98 169.275 298.723 168.737 299.342 168.07C299.96 167.403 300.441 166.621 300.757 165.768C301.073 164.915 301.217 164.009 301.182 163.1C301.148 162.191 300.934 161.298 300.554 160.472C300.174 159.646 299.635 158.903 298.967 158.285C298.3 157.668 297.517 157.188 296.664 156.873C295.811 156.558 294.904 156.414 293.995 156.45C293.087 156.485 292.194 156.7 291.368 157.081L264.125 169.615C263.299 169.995 262.557 170.534 261.939 171.201C261.322 171.867 260.842 172.649 260.527 173.502C260.211 174.354 260.067 175.26 260.102 176.168C260.137 177.076 260.351 177.969 260.731 178.794Z" fill="#3F3D56"/>
<path id="Vector_22" d="M217.503 178.794C217.124 179.62 216.585 180.363 215.918 180.98C215.251 181.598 214.469 182.078 213.617 182.393C212.764 182.708 211.858 182.852 210.95 182.817C210.042 182.782 209.15 182.569 208.324 182.189L181.081 169.655C180.254 169.275 179.511 168.737 178.892 168.07C178.274 167.403 177.793 166.621 177.477 165.768C177.162 164.915 177.017 164.009 177.052 163.1C177.086 162.191 177.3 161.298 177.68 160.472C178.06 159.646 178.599 158.903 179.267 158.285C179.934 157.668 180.717 157.188 181.57 156.873C182.423 156.558 183.33 156.414 184.239 156.45C185.148 156.485 186.04 156.7 186.866 157.081L214.109 169.615C214.935 169.995 215.677 170.534 216.295 171.201C216.912 171.867 217.392 172.649 217.707 173.502C218.023 174.354 218.167 175.26 218.132 176.168C218.097 177.076 217.883 177.969 217.503 178.794Z" fill="#3F3D56"/>
<path id="Vector_23" d="M211.436 249.987C210.527 249.987 209.627 249.808 208.787 249.461C207.948 249.113 207.185 248.603 206.542 247.961C205.9 247.318 205.39 246.555 205.042 245.715C204.694 244.876 204.515 243.976 204.515 243.067V213.079C204.518 211.245 205.248 209.487 206.545 208.191C207.843 206.895 209.602 206.167 211.436 206.167C213.27 206.167 215.029 206.895 216.326 208.191C217.624 209.487 218.354 211.245 218.356 213.079V243.067C218.356 243.976 218.177 244.876 217.829 245.715C217.482 246.555 216.972 247.318 216.329 247.961C215.687 248.603 214.924 249.113 214.084 249.461C213.244 249.808 212.345 249.987 211.436 249.987Z" fill="#3F3D56"/>
<path id="head1" d="M294.484 53.9105C294.883 52.798 294.987 51.6013 294.786 50.4368L291.019 28.2798L287.253 6.12276C287.05 4.92644 286.535 3.80472 285.761 2.87035C284.986 1.93598 283.98 1.2219 282.842 0.799854C281.704 0.377806 280.476 0.262663 279.279 0.466022C278.083 0.66938 276.961 1.18407 276.027 1.95835L258.722 16.2986L248.679 24.6208C241.692 23.5946 234.585 23.7017 227.632 24.9381L217.206 16.2986L199.9 1.95832C198.966 1.18404 197.844 0.669351 196.648 0.465991C195.452 0.262631 194.223 0.37776 193.085 0.799808C191.947 1.22186 190.941 1.93595 190.167 2.87032C189.392 3.80469 188.878 4.9264 188.674 6.12273L184.908 28.2798L181.141 50.4368C180.975 51.3841 181.012 52.3559 181.248 53.2882C181.485 54.2204 181.917 55.0919 182.515 55.8451C176.398 65.9596 173.104 77.5286 172.975 89.3482C172.846 101.168 175.887 112.806 181.781 123.051C187.676 133.297 196.209 141.776 206.492 147.605C216.775 153.434 228.432 156.401 240.25 156.197C252.069 155.993 263.617 152.625 273.692 146.444C283.767 140.263 292.002 131.494 297.539 121.051C303.076 110.608 305.713 98.872 305.176 87.064C304.639 75.2559 300.947 63.8076 294.484 53.9105H294.484Z" fill="#3F3D56"/>
<path id="Vector_24" d="M275.589 11.8299L254.604 29.2197L254.603 29.2204C254.141 29.6037 253.787 30.102 253.578 30.6653C253.37 31.2285 253.313 31.8367 253.413 32.429C253.514 33.0212 253.769 33.5765 254.152 34.039C254.535 34.5015 255.034 34.855 255.597 35.0639L281.15 44.5434C281.713 44.7523 282.322 44.8093 282.914 44.7087C283.506 44.608 284.062 44.3532 284.524 43.9699C284.987 43.5866 285.34 43.0883 285.549 42.525C285.758 41.9617 285.815 41.3534 285.715 40.7611L281.147 13.8915C281.05 13.2978 280.796 12.7408 280.412 12.2777C280.029 11.8145 279.528 11.462 278.963 11.2562C278.579 11.1125 278.172 11.0386 277.761 11.0381C276.967 11.0395 276.198 11.3198 275.589 11.8299Z" fill="#E6E6E6"/>
<path id="Vector_25" d="M196.964 11.2562C196.399 11.462 195.899 11.8145 195.515 12.2777C195.131 12.7408 194.877 13.2978 194.78 13.8915L190.213 40.7611C190.112 41.3534 190.169 41.9617 190.378 42.525C190.587 43.0883 190.94 43.5866 191.403 43.9699C191.866 44.3532 192.421 44.608 193.013 44.7087C193.606 44.8093 194.214 44.7523 194.777 44.5434L220.331 35.0639C220.894 34.855 221.392 34.5015 221.775 34.039C222.159 33.5764 222.413 33.0212 222.514 32.429C222.615 31.8367 222.558 31.2285 222.349 30.6653C222.14 30.102 221.787 29.6037 221.324 29.2204L200.338 11.8299C199.729 11.3198 198.96 11.0395 198.166 11.0381C197.756 11.0386 197.349 11.1125 196.964 11.2562Z" fill="#E6E6E6"/>
<path id="Vector_26" d="M239.117 108.505C244.213 108.505 248.344 104.374 248.344 99.2782C248.344 94.1822 244.213 90.0511 239.117 90.0511C234.021 90.0511 229.89 94.1822 229.89 99.2782C229.89 104.374 234.021 108.505 239.117 108.505Z" fill="#E6E6E6"/>
<path id="Vector_27" d="M239.117 96.9714C242.514 96.9714 245.268 95.9386 245.268 94.6646C245.268 93.3907 242.514 92.3579 239.117 92.3579C235.72 92.3579 232.966 93.3907 232.966 94.6646C232.966 95.9386 235.72 96.9714 239.117 96.9714Z" fill="#3F3D56"/>
<path id="Vector_28" d="M239.501 119.27C238.946 119.27 238.396 119.161 237.883 118.948C237.37 118.736 236.904 118.424 236.511 118.032C236.118 117.639 235.807 117.173 235.594 116.66C235.382 116.146 235.272 115.596 235.272 115.041V104.661H243.731V115.041C243.731 115.596 243.621 116.146 243.409 116.66C243.196 117.173 242.885 117.639 242.492 118.032C242.099 118.424 241.633 118.736 241.12 118.948C240.607 119.161 240.057 119.27 239.501 119.27Z" fill="#FF6584"/>
<path id="Vector_29" d="M238.604 0C239.047 0.91976 239.478 1.84947 239.883 2.79819C244.655 13.9273 246.264 26.1572 244.534 38.142C243.668 36.8859 242.758 35.5773 241.833 34.2543C243.815 22.7519 242.7 10.9294 238.604 0Z" fill="#3F3D56"/>
<path id="Vector_30" d="M231.683 8.45819C232.127 9.37796 232.557 10.3077 232.962 11.2564C237.734 22.3855 239.344 34.6154 237.613 46.6002C236.748 45.3442 235.838 44.0355 234.912 42.7125C236.894 31.2101 235.78 19.3875 231.683 8.45819Z" fill="#3F3D56"/>
<path id="Vector_31" d="M210.347 39.9473L211.322 27.5493L212.297 15.1512C212.35 14.4818 212.578 13.838 212.958 13.2846C213.338 12.7312 213.858 12.2876 214.464 11.9985C215.07 11.7094 215.741 11.5849 216.411 11.6375C217.08 11.6902 217.724 11.9181 218.277 12.2984L228.527 19.3417L236.011 24.485C236.49 23.9249 237.084 23.4752 237.753 23.1668C238.422 22.8584 239.149 22.6988 239.886 22.6988C240.623 22.6988 241.35 22.8584 242.019 23.1668C242.688 23.4752 243.282 23.9249 243.761 24.485L251.245 19.3417L261.495 12.2984C262.048 11.9181 262.692 11.6902 263.361 11.6375C264.031 11.5849 264.702 11.7094 265.308 11.9985C265.914 12.2876 266.434 12.7312 266.814 13.2846C267.194 13.838 267.422 14.4818 267.475 15.1512L268.45 27.5493L269.425 39.9473C269.477 40.6167 269.353 41.2882 269.064 41.8943C268.774 42.5003 268.331 43.0196 267.777 43.3999C267.224 43.7801 266.58 44.0081 265.911 44.0607C265.241 44.1133 264.57 43.9888 263.964 43.6997L252.739 38.345L243.517 33.9452C243.042 34.426 242.477 34.8078 241.854 35.0684C241.23 35.329 240.562 35.4632 239.886 35.4632C239.21 35.4632 238.542 35.329 237.918 35.0684C237.295 34.8078 236.73 34.426 236.255 33.9452L227.032 38.345L215.808 43.6998C215.202 43.9889 214.53 44.1134 213.861 44.0608C213.192 44.0081 212.548 43.7802 211.994 43.3999C211.441 43.0196 210.998 42.5003 210.708 41.8943C210.419 41.2882 210.295 40.6168 210.347 39.9473Z" fill="#6372FF"/>
<path id="Vector_32" d="M249.113 89.2822C249.113 90.5562 250.146 89.2822 251.42 89.2822C252.694 89.2822 253.727 90.5562 253.727 89.2822C253.725 88.6712 253.482 88.0857 253.049 87.6541C252.617 87.2225 252.031 86.9802 251.42 86.9802C250.809 86.9802 250.223 87.2225 249.79 87.6541C249.358 88.0857 249.114 88.6712 249.113 89.2822Z" fill="#E6E6E6"/>
<path id="Vector_33" d="M229.121 89.2822C229.121 90.5562 228.088 89.2822 226.814 89.2822C225.54 89.2822 224.507 90.5562 224.507 89.2822C224.509 88.6712 224.752 88.0857 225.185 87.6541C225.617 87.2225 226.203 86.9802 226.814 86.9802C227.425 86.9802 228.011 87.2225 228.444 87.6541C228.876 88.0857 229.12 88.6712 229.121 89.2822Z" fill="#E6E6E6"/>
<path id="Vector_34" d="M485.05 263.451V248.788H411.736V249.705V263.451V381.67V396.333H426.399H485.05V381.67H426.399V263.451H485.05Z" fill="#3F3D56"/>
<path id="Vector_35" d="M520.791 248.788V396.333H594.105V248.788H520.791ZM579.442 381.67H535.453V263.451H579.442V381.67Z" fill="#6372FF"/>
<path id="Vector_36" d="M317.344 381.67V249.705H302.681V381.67V396.333H317.344H375.995V381.67H317.344Z" fill="#6372FF"/>
<path id="Vector_37" d="M269.69 263.451V248.788H196.376V249.705V263.451V314.771V329.434V381.67V396.333H211.039H269.69V381.67H211.039V329.434H269.69V314.771H211.039V263.451H269.69Z" fill="#3F3D56"/>
<path id="Vector_38" d="M843.372 263.451V248.788H770.058V249.705V263.451V314.771V329.434V381.67V396.333H784.721H843.372V381.67H784.721V329.434H843.372V314.771H784.721V263.451H843.372Z" fill="#6372FF"/>
<path id="Vector_39" d="M146.889 249.705V370.89L108.228 332.23L108.14 332.319L108.058 332.237L68.535 371.76V249.247H53.872V395.875H68.535V392.496L108.147 352.884L146.889 391.627V396.333H161.552V249.705H146.889Z" fill="#3F3D56"/>
<path id="Vector_40" d="M721.488 249.705V253.083L681.876 292.695L643.133 253.953V249.247H628.47V395.875H643.133V274.689L681.794 313.35L681.883 313.261L681.964 313.342L721.488 273.819V396.333H736.15V249.705H721.488Z" fill="#3F3D56"/>
<path id="ball3" d="M339.076 159.38C344.046 159.38 348.076 155.35 348.076 150.38C348.076 145.409 344.046 141.38 339.076 141.38C334.105 141.38 330.076 145.409 330.076 150.38C330.076 155.35 334.105 159.38 339.076 159.38Z" fill="#6372FF"/>
<path id="ball1" d="M117.076 259.38C122.046 259.38 126.076 255.35 126.076 250.38C126.076 245.409 122.046 241.38 117.076 241.38C112.105 241.38 108.076 245.409 108.076 250.38C108.076 255.35 112.105 259.38 117.076 259.38Z" fill="#6372FF"/>
<path id="ball2" d="M295.076 459.38C300.046 459.38 304.076 455.35 304.076 450.38C304.076 445.409 300.046 441.38 295.076 441.38C290.105 441.38 286.076 445.409 286.076 450.38C286.076 455.35 290.105 459.38 295.076 459.38Z" fill="#6372FF"/>
<path id="ball4" d="M521.076 186.38C526.046 186.38 530.076 182.35 530.076 177.38C530.076 172.409 526.046 168.38 521.076 168.38C516.105 168.38 512.076 172.409 512.076 177.38C512.076 182.35 516.105 186.38 521.076 186.38Z" fill="#6372FF"/>
<path id="ball6" d="M786.076 451.38C791.046 451.38 795.076 447.35 795.076 442.38C795.076 437.409 791.046 433.38 786.076 433.38C781.105 433.38 777.076 437.409 777.076 442.38C777.076 447.35 781.105 451.38 786.076 451.38Z" fill="#6372FF"/>
<path id="ball7" d="M795.076 215.38C800.046 215.38 804.076 211.35 804.076 206.38C804.076 201.409 800.046 197.38 795.076 197.38C790.105 197.38 786.076 201.409 786.076 206.38C786.076 211.35 790.105 215.38 795.076 215.38Z" fill="#6372FF"/>
<path id="ball5" d="M681.076 377.38C686.046 377.38 690.076 373.35 690.076 368.38C690.076 363.409 686.046 359.38 681.076 359.38C676.105 359.38 672.076 363.409 672.076 368.38C672.076 373.35 676.105 377.38 681.076 377.38Z" fill="#6372FF"/>
</g>
<defs>
<filter id="filter0_d" x="0" y="0" width="897.076" height="467.38" filterUnits="userSpaceOnUse" color-interpolation-filters="sRGB">
<feFlood flood-opacity="0" result="BackgroundImageFix"/>
<feColorMatrix in="SourceAlpha" type="matrix" values="0 0 0 0 0 0 0 0 0 0 0 0 0 0 0 0 0 0 127 0"/>
<feOffset dy="4"/>
<feGaussianBlur stdDeviation="2"/>
<feColorMatrix type="matrix" values="0 0 0 0 0 0 0 0 0 0 0 0 0 0 0 0 0 0 0.25 0"/>
<feBlend mode="normal" in2="BackgroundImageFix" result="effect1_dropShadow"/>
<feBlend mode="normal" in="SourceGraphic" in2="effect1_dropShadow" result="shape"/>
</filter>
<clipPath id="clip0">
<rect width="889.076" height="459.38" fill="white" transform="translate(4)"/>
</clipPath>
</defs>
</svg>
