<svg width="283" height="198" viewBox="0 0 283 198" fill="none" xmlns="http://www.w3.org/2000/svg">
<g id="undraw_Completed_re_cisp 1">
<path id="Vector" d="M50.9438 140.611H179.628C179.857 140.611 180.079 140.521 180.243 140.359C180.408 140.197 180.501 139.975 180.501 139.742V91.1387C180.501 90.9061 180.408 90.6846 180.243 90.5223C180.079 90.3603 179.857 90.2705 179.628 90.2705C179.399 90.2705 179.177 90.3603 179.013 90.5223C178.848 90.6846 178.755 90.9062 178.755 91.1387V138.874H51.8172V43.4031H115.286C115.515 43.4031 115.737 43.3133 115.901 43.1513C116.066 42.989 116.159 42.7674 116.159 42.5349C116.159 42.3023 116.066 42.0808 115.901 41.9185C115.737 41.7565 115.515 41.6667 115.286 41.6667H50.9438C50.7144 41.6667 50.4931 41.7565 50.3287 41.9185C50.1642 42.0808 50.0704 42.3023 50.0704 42.5349V139.742C50.0704 139.975 50.1642 140.197 50.3287 140.359C50.493 140.521 50.7144 140.611 50.9438 140.611Z" fill="#071FF5" stroke="#8108FA"/>
<path id="Path 395" d="M179.356 54.4438L179.342 54.4656L179.338 54.463L179.335 54.4608C177.892 53.5316 176.213 52.7955 174.392 52.2988C172.571 51.802 170.648 51.5555 168.734 51.574C166.82 51.5924 164.958 51.8754 163.253 52.404C161.549 52.9327 160.041 53.6949 158.813 54.6403L103.548 97.1746L103.269 97.3895L102.973 97.1985L82.1392 83.773C79.2196 81.901 75.4079 80.8624 71.5434 80.9031C67.677 80.9438 64.118 82.0606 61.636 83.9706C59.1612 85.875 57.9766 88.3915 58.2463 90.9618C58.5175 93.5456 60.2465 96.0734 63.1546 97.9563C63.1549 97.9565 63.1552 97.9567 63.1555 97.9569L95.3201 118.638L95.3236 118.64L95.473 118.735C97.8137 120.212 100.734 121.165 103.809 121.443L103.823 121.432L104.021 121.449C106.264 121.638 108.505 121.465 110.566 120.945C112.629 120.424 114.448 119.574 115.89 118.47L179.356 54.4438ZM179.356 54.4438L179.358 54.4465L179.347 54.4639C179.365 54.4753 179.382 54.4868 179.4 54.4983L179.577 54.7167L179.582 54.7125L179.646 54.6618C182.381 56.5218 184.008 58.9659 184.274 61.4635C184.548 64.0368 183.365 66.5571 180.89 68.4651L115.891 118.469L179.356 54.4438Z" fill="#30F2F2" stroke="black"/>
</g>
</svg>
